<?xml version="1.0" standalone="no"?>
<!DOCTYPE svg PUBLIC "-//W3C//DTD SVG 1.1//EN" "http://www.w3.org/Graphics/SVG/1.1/DTD/svg11.dtd">
<svg width="200px" height="200px" version="1.1" xmlns="http://www.w3.org/2000/svg">
    <circle cx="100" cy="100" r="100" fill="#F5F5F5" fill-opacity="0.3" />
    <path d="M100 0 A100,100 0 0,0 200,100 A100,100 0 0,0 100,0" fill="#6AE3A1" stroke-width="2" fill-opacity="0.5" />
    <path d="M29.3 170.7 A160,160 0 0,1 170.7,170.7 A100,100 0 0,1 29.3 170.7" fill="#FFC0CB" stroke-width="2" fill-opacity="0.5" />
    <path d="M50 14.4 A120,120 0 0,1 14.4,150 A100,100 0 0,1 50 14.4" fill="#FFA07A" stroke-width="2" fill-opacity="0.5" />
    <rect x="25" y="64" rx="10" ry="10" width="152" height="80" fill="#DCDCDC" fill-opacity="0.4" />
    <text x="38" y="120" fill="#696969" style="font-size: 50px; font-weight: bold; font-family: 'Microsoft Yahei';">Ryan</text>
</svg>